# xmcd
#
# Track frame offsets:
#	150
#	31432
#	61715
#	96017
#	143767
#	170459
#	207277
#	234323
#	266049
#	302504
#
# Disc length: 4354 seconds
#
# Revision: 0
# Processed by: cddbd v1.5.2PL0 Copyright (c) Steve Scherf et al.
# Submitted via: EasyCDDAExtractor 16.1.0.1
#
DISCID=7e11000a
DTITLE=Pet Shop Boys - Elusive Continued
DYEAR=1900
DGENRE=
TTITLE0=Violence (FunkFX Extended Mix)
TTITLE1=Metamorphosis (Coming Out Extended Mix)
TTITLE2=Euroboy (Wait For The Hardcore Rhythm Mix)
TTITLE3=I Want To Wake Up (1998 Epic Adventure)
TTITLE4=It Always Comes As A Surprise (Subtle Version)
TTITLE5=We All Feel Better In The Dark (Sexual Version)
TTITLE6=One In A Million (10 To 6th Power Mix)
TTITLE7=Miserablism (WYSIWYG Extended Mix)
TTITLE8=One Thing Leads To Another (Extended Mix)
TTITLE9=The End Of The World (2 Late Version)
EXTD=
EXTT0=
EXTT1=
EXTT2=
EXTT3=
EXTT4=
EXTT5=
EXTT6=
EXTT7=
EXTT8=
EXTT9=
PLAYORDER=
